<svg xmlns="http://www.w3.org/2000/svg" width="38.993" height="28" viewBox="0 0 38.993 28">
  <path id="behance-svgrepo-com" d="M137.459,262.952h9.73v2.7h-9.73Zm-9.75,10.683a5.968,5.968,0,0,0,3.277-5.735c0-5.473-3.56-6.8-7.672-6.8H112v27.47h11.632c4.36,0,8.452-2.4,8.452-7.978C132.084,277.145,130.66,274.6,127.709,273.636Zm-10.432-7.849h4.95c1.907,0,3.619.608,3.619,3.141,0,2.332-1.331,3.269-3.219,3.269h-5.35Zm5.633,18.12h-5.638v-7.565h5.75c2.322,0,3.79,1.11,3.79,3.922C126.812,283.03,125.061,283.906,122.91,283.906Zm28.083-4.993c0-5.886-3.009-10.789-8.452-10.789-5.292,0-8.891,4.558-8.891,10.533,0,6.192,3.409,10.444,8.891,10.444,4.15,0,6.838-2.137,8.13-6.695h-4.209a3.923,3.923,0,0,1-3.77,2.594c-2.8,0-4.263-1.874-4.263-5.06h12.53C150.974,279.61,150.993,279.265,150.993,278.913Zm-12.564-2.421c.151-2.616,1.678-4.251,3.96-4.251,2.4,0,3.6,1.612,3.809,4.251Z" transform="translate(-112 -261.1)" fill="#8d8d8e"/>
</svg>
