<svg xmlns="http://www.w3.org/2000/svg" width="32" height="32" viewBox="0 0 32 32">
  <path id="dribbble-svgrepo-com" d="M16,32A16,16,0,1,1,32,16,16.025,16.025,0,0,1,16,32ZM29.5,18.188a20.054,20.054,0,0,0-8.516-.584,59.2,59.2,0,0,1,2.657,9.745,13.7,13.7,0,0,0,5.859-9.161ZM21.339,28.6A56.988,56.988,0,0,0,18.422,18.24l-.088.025C10.615,20.953,7.855,26.3,7.615,26.8a13.64,13.64,0,0,0,13.718,1.8ZM5.849,25.161A21.637,21.637,0,0,1,16.958,16.14c.177-.061.359-.113.536-.161-.344-.781-.719-1.557-1.109-2.317A50.34,50.34,0,0,1,2.344,15.6l-.005.417a13.609,13.609,0,0,0,3.511,9.14ZM2.62,13.219a50.723,50.723,0,0,0,12.635-1.661,87.787,87.787,0,0,0-5.067-7.907A13.719,13.719,0,0,0,2.62,13.214ZM12.8,2.735a73.383,73.383,0,0,1,5.093,8A15.455,15.455,0,0,0,25.063,5.8,13.636,13.636,0,0,0,12.8,2.735ZM26.579,7.38a18.247,18.247,0,0,1-7.631,5.385c.317.656.625,1.313.907,1.984.109.24.2.48.291.7a31.941,31.941,0,0,1,9.521.443,13.538,13.538,0,0,0-3.079-8.511Z" fill="#8d8d8e"/>
</svg>
