<svg xmlns="http://www.w3.org/2000/svg" width="80.92" height="131.563" viewBox="0 0 80.92 131.563">
  <g id="XMLID_834_" transform="translate(-76.703)">
    <path id="XMLID_835_" d="M79.287,70.071h17.56v59.371a2.387,2.387,0,0,0,2.584,2.122H129.2a2.387,2.387,0,0,0,2.584-2.122V70.35h20.186a2.458,2.458,0,0,0,2.567-1.88l3.066-21.857a1.887,1.887,0,0,0-.638-1.655,2.861,2.861,0,0,0-1.928-.71H131.788v-13.7c0-4.13,2.708-6.225,8.049-6.225h15.2a2.387,2.387,0,0,0,2.584-2.122V2.138A2.387,2.387,0,0,0,155.039.016H134.088C133.94.01,133.612,0,133.128,0c-3.635,0-16.271.586-26.253,8.128-11.059,8.357-9.522,18.364-9.155,20.1V44.248H79.287A2.387,2.387,0,0,0,76.7,46.37V67.948A2.387,2.387,0,0,0,79.287,70.071Z" fill="#8d8d8e"/>
  </g>
</svg>
