<svg xmlns="http://www.w3.org/2000/svg" width="67.794" height="62.906" viewBox="0 0 67.794 62.906">
  <g id="XMLID_826_" transform="translate(0.002 -28.097)">
    <path id="XMLID_827_" d="M66.256,35.357a23.824,23.824,0,0,1-3.279,1.354,17.1,17.1,0,0,0,2.951-5.881,1.342,1.342,0,0,0-.36-1.347.991.991,0,0,0-1.239-.1A24.121,24.121,0,0,1,56.7,32.8a13.787,13.787,0,0,0-10.187-4.7c-8.025,0-14.554,7.4-14.554,16.494a19.039,19.039,0,0,0,.119,2.131c-9.958-.991-19.216-6.538-25.573-15.376a1.038,1.038,0,0,0-.933-.452,1.089,1.089,0,0,0-.859.611A18.2,18.2,0,0,0,2.743,39.8,17.84,17.84,0,0,0,6.207,50.489,11.661,11.661,0,0,1,4.259,49.5a.982.982,0,0,0-1.075.008,1.273,1.273,0,0,0-.55,1.047c0,.073,0,.146,0,.22A17.092,17.092,0,0,0,9.757,64.963a11.17,11.17,0,0,1-1.107-.182,1.021,1.021,0,0,0-1.024.4,1.365,1.365,0,0,0-.223,1.2C9,72.018,13.1,76.167,18.065,77.432A23.558,23.558,0,0,1,4.3,81.884a23.272,23.272,0,0,1-3.082-.2,1.093,1.093,0,0,0-1.158.813A1.328,1.328,0,0,0,.5,83.953,35.967,35.967,0,0,0,21.724,91c14.817,0,24.086-7.919,29.253-14.562A49.834,49.834,0,0,0,61.115,46.36c0-.453-.006-.91-.018-1.365a30.791,30.791,0,0,0,6.511-7.816,1.372,1.372,0,0,0-.072-1.487A1.009,1.009,0,0,0,66.256,35.357Z" transform="translate(0)" fill="#8d8d8e"/>
  </g>
</svg>
