<svg xmlns="http://www.w3.org/2000/svg" width="41" height="41" viewBox="0 0 41 41">
  <g id="behance" transform="translate(0 0.246)">
    <rect id="bg" width="41" height="41" transform="translate(0 -0.246)" fill="#1869ff"/>
    <path id="behance-svgrepo-com" d="M128.976,262.687h6.488V265h-6.488Zm-6.5,9.157a5.5,5.5,0,0,0,2.185-4.915c0-4.691-2.374-5.828-5.116-5.828H112v23.545h7.756c2.907,0,5.636-2.057,5.636-6.838,0-2.955-.949-5.136-2.917-5.962Zm-6.956-6.727h3.3c1.272,0,2.413.521,2.413,2.692,0,2-.887,2.8-2.146,2.8h-3.567Zm3.756,15.531h-3.759v-6.484h3.834c1.548,0,2.527.951,2.527,3.362C121.876,279.9,120.709,280.647,119.275,280.647ZM138,276.368c0-5.045-2.006-9.247-5.636-9.247-3.529,0-5.928,3.907-5.928,9.028,0,5.307,2.273,8.952,5.928,8.952,2.767,0,4.559-1.832,5.421-5.738h-2.807a2.727,2.727,0,0,1-2.514,2.223c-1.867,0-2.843-1.606-2.843-4.337h8.355c.01-.283.023-.578.023-.88Zm-8.378-2.075c.1-2.242,1.119-3.644,2.64-3.644,1.6,0,2.4,1.382,2.54,3.644Z" transform="translate(-103.809 -251.346)" fill="#fff"/>
  </g>
</svg>
