<svg xmlns="http://www.w3.org/2000/svg" width="41" height="41" viewBox="0 0 41 41">
  <g id="dribbble" transform="translate(-348 -346)">
    <path id="bg" d="M0,0H41V41H0Z" transform="translate(348 346)" fill="#e51a68"/>
    <path id="icons8-dribbble" d="M17,4A13,13,0,1,0,30,17,13.015,13.015,0,0,0,17,4Zm0,1.95A11.007,11.007,0,0,1,24.069,8.5a23.75,23.75,0,0,1-6.042,3.84,55.083,55.083,0,0,0-3.8-6.03A11.08,11.08,0,0,1,17,5.95ZM12.31,7a51.629,51.629,0,0,1,3.875,6.025A23.158,23.158,0,0,1,8.55,14.4c-.759,0-1.507-.051-2.25-.123A11.027,11.027,0,0,1,12.31,7ZM25.451,9.88a11,11,0,0,1,2.594,7.014,17.127,17.127,0,0,0-7.843-.171c-.392-.907-.821-1.789-1.262-2.669A25.777,25.777,0,0,0,25.451,9.88Zm-8.336,4.89c.412.813.827,1.621,1.195,2.459A18.118,18.118,0,0,0,8.718,24.3,11,11,0,0,1,5.95,17c0-.269.022-.533.041-.8a25.015,25.015,0,0,0,2.559.147A25.112,25.112,0,0,0,17.116,14.771ZM23.663,18.3a16.021,16.021,0,0,1,4.217.574A11.021,11.021,0,0,1,23.269,26.1a53.7,53.7,0,0,0-2.313-7.436A15.729,15.729,0,0,1,23.663,18.3Zm-4.653.731A50.351,50.351,0,0,1,21.489,27.1a11.033,11.033,0,0,1-11.34-1.43A16.124,16.124,0,0,1,19.01,19.031Z" transform="translate(352 350.629)" fill="#fff"/>
  </g>
</svg>
