<svg xmlns="http://www.w3.org/2000/svg" width="41" height="41" viewBox="0 0 41 41">
  <g id="facebook" transform="translate(-189 -346)">
    <rect id="bg" width="41" height="41" transform="translate(189 346)" fill="#3a5898"/>
    <path id="icons8-facebook-f" d="M26.808,6.891h3.7c.409,0,.74-.243.74-.543V2.686c0-.285-.3-.522-.685-.542C29.387,2.083,27.086,2,25.431,2c-4.547,0-7.508,2-7.508,5.635v3.6H12.74c-.409,0-.74.243-.74.543v3.8c0,.3.332.543.74.543h5.183V26.457c0,.3.332.543.74.543h5.183c.409,0,.74-.243.74-.543V16.13h5.347a.7.7,0,0,0,.736-.484l.576-3.8c.049-.322-.295-.6-.736-.6H24.586V8.522C24.586,7.621,25.581,6.891,26.808,6.891Z" transform="translate(187.939 352.629)" fill="#fff"/>
  </g>
</svg>
