<svg xmlns="http://www.w3.org/2000/svg" width="41" height="41" viewBox="0 0 41 41">
  <g id="in" transform="translate(-400 -346)">
    <path id="bg" d="M0,0H41V41H0Z" transform="translate(400 346)" fill="#007bb6"/>
    <path id="icons8-линкедин-2" d="M5.391,3.01A3.1,3.1,0,0,0,2.006,6,3.162,3.162,0,0,0,5.391,9.046,3.13,3.13,0,0,0,8.777,5.962,3.159,3.159,0,0,0,5.391,3.01ZM2.565,10.261a.588.588,0,0,0-.565.6V28.4a.588.588,0,0,0,.565.6H8.217a.588.588,0,0,0,.565-.6V10.866a.588.588,0,0,0-.565-.6Zm8.478,0a.588.588,0,0,0-.565.6V28.4a.588.588,0,0,0,.565.6H16.13a.586.586,0,0,0,.565-.6V19.031a2.647,2.647,0,0,1,2.34-2.71,1.755,1.755,0,0,1,.406,0,2.647,2.647,0,0,1,2.34,2.71V28.4a.586.586,0,0,0,.565.6h5.087A.588.588,0,0,0,28,28.4V18.124c0-3.913-1.962-7.862-6.337-7.862a7.318,7.318,0,0,0-4.4,1.506v-.9a.588.588,0,0,0-.565-.6Z" transform="translate(406.095 349.619)" fill="#fff"/>
  </g>
</svg>
