<svg xmlns="http://www.w3.org/2000/svg" width="41" height="41" viewBox="0 0 41 41">
  <g id="instagram" transform="translate(-296 -346)">
    <path id="bg" d="M0,0H41V41H0Z" transform="translate(296 346)" fill="#13578a"/>
    <path id="icons8-instagram" d="M10.682,3A7.691,7.691,0,0,0,3,10.682V21.318A7.691,7.691,0,0,0,10.682,29H21.318A7.691,7.691,0,0,0,29,21.318V10.682A7.691,7.691,0,0,0,21.318,3Zm0,1.182H21.318a6.491,6.491,0,0,1,6.5,6.5V21.318a6.491,6.491,0,0,1-6.5,6.5H10.682a6.491,6.491,0,0,1-6.5-6.5V10.682A6.491,6.491,0,0,1,10.682,4.182ZM23.091,7.727a1.182,1.182,0,1,0,1.182,1.182A1.182,1.182,0,0,0,23.091,7.727ZM16,9.5A6.5,6.5,0,1,0,22.5,16,6.509,6.509,0,0,0,16,9.5Zm0,1.182A5.318,5.318,0,1,1,10.682,16,5.309,5.309,0,0,1,16,10.682Z" transform="translate(300.15 351.629)" fill="#fff"/>
  </g>
</svg>
