<svg xmlns="http://www.w3.org/2000/svg" width="41" height="41" viewBox="0 0 41 41">
  <g id="twitter" transform="translate(-243 -346)">
    <path id="bg" d="M0,0H41V41H0Z" transform="translate(243 346)" fill="#56acef"/>
    <path id="icons8-твиттер" d="M25.941,8.694a9.165,9.165,0,0,1-3.066,1.035A6.518,6.518,0,0,0,25.222,6.1a9.6,9.6,0,0,1-3.388,1.591,4.92,4.92,0,0,0-3.893-2.072c-2.946,0-5.335,2.937-5.335,6.563a8.039,8.039,0,0,0,.14,1.5C8.312,13.4,4.383,10.789,1.751,6.817a7.726,7.726,0,0,0-.721,3.3A7.069,7.069,0,0,0,3.4,15.584a4.6,4.6,0,0,1-2.417-.823v.082c0,3.182,1.84,5.832,4.278,6.438a4.407,4.407,0,0,1-1.4.229,4.211,4.211,0,0,1-1.005-.12C3.534,24,5.5,25.9,7.836,25.952A9.507,9.507,0,0,1,1.212,28.76a8.555,8.555,0,0,1-1.271-.092,13.112,13.112,0,0,0,8.176,2.95c9.812,0,15.177-10,15.177-18.674,0-.284-.006-.571-.014-.85A12.554,12.554,0,0,0,25.941,8.694Z" transform="translate(251.304 349.012)" fill="#fff"/>
  </g>
</svg>
